<?xml version="1.0" encoding="UTF-8" standalone="no"?>
<!DOCTYPE svg PUBLIC "-//W3C//DTD SVG 1.1//EN"
 "http://www.w3.org/Graphics/SVG/1.1/DTD/svg11.dtd">
<!-- Generated by graphviz version 2.40.1 (20161225.0304)
 -->
<!-- Title: dependencies Pages: 1 -->
<svg width="700pt" height="363pt"
 viewBox="0.00 0.00 700.00 363.00" xmlns="http://www.w3.org/2000/svg" xmlns:xlink="http://www.w3.org/1999/xlink">
<g id="graph0" class="graph" transform="scale(1 1) rotate(0) translate(4 359)">
<title>dependencies</title>
<polygon fill="#ffffff" stroke="transparent" points="-4,4 -4,-359 696,-359 696,4 -4,4"/>
<text text-anchor="start" x="325.0091" y="-42.4" font-family="sans-serif" font-weight="bold" font-size="14.00" fill="#000000">Legend</text>
<polygon fill="#ffffb3" stroke="transparent" points="112,-10 112,-30 132,-30 132,-10 112,-10"/>
<text text-anchor="start" x="135.629" y="-15.4" font-family="sans-serif" font-size="14.00" fill="#000000"> &#160;Declarations</text>
<polygon fill="#8dd3c7" stroke="transparent" points="225,-10 225,-30 245,-30 245,-10 225,-10"/>
<text text-anchor="start" x="248.7251" y="-15.4" font-family="sans-serif" font-size="14.00" fill="#000000"> &#160;Module</text>
<polygon fill="#80b1d3" stroke="transparent" points="311,-10 311,-30 331,-30 331,-10 311,-10"/>
<text text-anchor="start" x="334.7812" y="-15.4" font-family="sans-serif" font-size="14.00" fill="#000000"> &#160;Bootstrap</text>
<polygon fill="#fdb462" stroke="transparent" points="408,-10 408,-30 428,-30 428,-10 408,-10"/>
<text text-anchor="start" x="431.6732" y="-15.4" font-family="sans-serif" font-size="14.00" fill="#000000"> &#160;Providers</text>
<polygon fill="#fb8072" stroke="transparent" points="504,-10 504,-30 524,-30 524,-10 504,-10"/>
<text text-anchor="start" x="527.7258" y="-15.4" font-family="sans-serif" font-size="14.00" fill="#000000"> &#160;Exports</text>
<g id="clust1" class="cluster">
<title>cluster_AppRoutingModule</title>
<polygon fill="none" stroke="#000000" stroke-dasharray="1,5" points="8,-70 8,-279 218,-279 218,-70 8,-70"/>
</g>
<g id="clust3" class="cluster">
<title>cluster_AppRoutingModule_imports</title>
<polygon fill="none" stroke="#000000" points="16,-78 16,-130 210,-130 210,-78 16,-78"/>
</g>
<g id="clust4" class="cluster">
<title>cluster_AppRoutingModule_exports</title>
<polygon fill="none" stroke="#000000" points="70,-219 70,-271 188,-271 188,-219 70,-219"/>
</g>
<g id="clust7" class="cluster">
<title>cluster_AppModule</title>
<polygon fill="none" stroke="#000000" stroke-dasharray="1,5" points="282,-146 282,-347 652,-347 652,-146 282,-146"/>
</g>
<g id="clust8" class="cluster">
<title>cluster_AppModule_declarations</title>
<polygon fill="none" stroke="#000000" points="522,-154 522,-206 644,-206 644,-154 522,-154"/>
</g>
<g id="clust10" class="cluster">
<title>cluster_AppModule_imports</title>
<polygon fill="none" stroke="#000000" points="290,-154 290,-206 514,-206 514,-154 290,-154"/>
</g>
<g id="clust12" class="cluster">
<title>cluster_AppModule_bootstrap</title>
<polygon fill="none" stroke="#000000" points="340,-287 340,-339 464,-339 464,-287 340,-287"/>
</g>
<g id="clust14" class="cluster">
<title>cluster_TestModule</title>
<polygon fill="none" stroke="#000000" stroke-dasharray="1,5" points="226,-70 226,-138 684,-138 684,-70 226,-70"/>
</g>
<g id="clust15" class="cluster">
<title>cluster_TestModule_declarations</title>
<polygon fill="none" stroke="#000000" points="528,-78 528,-130 676,-130 676,-78 528,-78"/>
</g>
<g id="clust17" class="cluster">
<title>cluster_TestModule_imports</title>
<polygon fill="none" stroke="#000000" points="392,-78 392,-130 520,-130 520,-78 392,-78"/>
</g>
<g id="clust18" class="cluster">
<title>cluster_TestModule_exports</title>
<polygon fill="none" stroke="#000000" points="234,-78 234,-130 384,-130 384,-78 234,-78"/>
</g>
<!-- RouterModule.forRoot(args) -->
<g id="node1" class="node">
<title>RouterModule.forRoot(args)</title>
<polygon fill="#8dd3c7" stroke="#000000" points="201.8419,-122 198.8419,-126 177.8419,-126 174.8419,-122 24.1581,-122 24.1581,-86 201.8419,-86 201.8419,-122"/>
<text text-anchor="middle" x="113" y="-99.8" font-family="Times,serif" font-size="14.00" fill="#000000">RouterModule.forRoot(args)</text>
</g>
<!-- AppRoutingModule -->
<g id="node2" class="node">
<title>AppRoutingModule</title>
<polygon fill="#8dd3c7" stroke="#000000" points="193.2744,-198 190.2744,-202 169.2744,-202 166.2744,-198 64.7256,-198 64.7256,-162 193.2744,-162 193.2744,-198"/>
<text text-anchor="middle" x="129" y="-175.8" font-family="Times,serif" font-size="14.00" fill="#000000">AppRoutingModule</text>
</g>
<!-- RouterModule.forRoot(args)&#45;&gt;AppRoutingModule -->
<g id="edge1" class="edge">
<title>RouterModule.forRoot(args)&#45;&gt;AppRoutingModule</title>
<path fill="none" stroke="#000000" d="M129,-122.0109C129,-122.0109 129,-151.855 129,-151.855"/>
<polygon fill="#000000" stroke="#000000" points="125.5001,-151.8549 129,-161.855 132.5001,-151.855 125.5001,-151.8549"/>
</g>
<!-- RouterModule  -->
<g id="node3" class="node">
<title>RouterModule </title>
<polygon fill="#fb8072" stroke="#000000" points="179.6523,-263 78.3477,-263 78.3477,-227 179.6523,-227 179.6523,-263"/>
<text text-anchor="middle" x="129" y="-240.8" font-family="Times,serif" font-size="14.00" fill="#000000">RouterModule </text>
</g>
<!-- AppRoutingModule&#45;&gt;RouterModule  -->
<g id="edge2" class="edge">
<title>AppRoutingModule&#45;&gt;RouterModule </title>
<path fill="none" stroke="#000000" stroke-dasharray="5,2" d="M129,-198.1061C129,-198.1061 129,-216.991 129,-216.991"/>
<polygon fill="#000000" stroke="#000000" points="125.5001,-216.9909 129,-226.991 132.5001,-216.991 125.5001,-216.9909"/>
</g>
<!-- AppModule -->
<g id="node5" class="node">
<title>AppModule</title>
<polygon fill="#8dd3c7" stroke="#000000" points="443.6571,-263 440.6571,-267 419.6571,-267 416.6571,-263 360.3429,-263 360.3429,-227 443.6571,-227 443.6571,-263"/>
<text text-anchor="middle" x="402" y="-240.8" font-family="Times,serif" font-size="14.00" fill="#000000">AppModule</text>
</g>
<!-- AppRoutingModule&#45;&gt;AppModule -->
<g id="edge5" class="edge">
<title>AppRoutingModule&#45;&gt;AppModule</title>
<path fill="none" stroke="#000000" d="M186.4816,-198.1061C186.4816,-217.3391 186.4816,-245 186.4816,-245 186.4816,-245 350.1903,-245 350.1903,-245"/>
<polygon fill="#000000" stroke="#000000" points="350.1904,-248.5001 360.1903,-245 350.1903,-241.5001 350.1904,-248.5001"/>
</g>
<!-- AppComponent -->
<g id="node4" class="node">
<title>AppComponent</title>
<polygon fill="#ffffb3" stroke="#000000" points="635.9399,-198 530.0601,-198 530.0601,-162 635.9399,-162 635.9399,-198"/>
<text text-anchor="middle" x="583" y="-175.8" font-family="Times,serif" font-size="14.00" fill="#000000">AppComponent</text>
</g>
<!-- AppComponent&#45;&gt;AppModule -->
<g id="edge3" class="edge">
<title>AppComponent&#45;&gt;AppModule</title>
<path fill="none" stroke="#000000" d="M583,-198.1061C583,-217.3391 583,-245 583,-245 583,-245 453.98,-245 453.98,-245"/>
<polygon fill="#000000" stroke="#000000" points="453.98,-241.5001 443.98,-245 453.9799,-248.5001 453.98,-241.5001"/>
</g>
<!-- AppComponent  -->
<g id="node8" class="node">
<title>AppComponent </title>
<polygon fill="#80b1d3" stroke="#000000" points="456.439,-331 347.561,-331 347.561,-295 456.439,-295 456.439,-331"/>
<text text-anchor="middle" x="402" y="-308.8" font-family="Times,serif" font-size="14.00" fill="#000000">AppComponent </text>
</g>
<!-- AppModule&#45;&gt;AppComponent  -->
<g id="edge7" class="edge">
<title>AppModule&#45;&gt;AppComponent </title>
<path fill="none" stroke="#000000" stroke-dasharray="1,5" d="M402,-263.2228C402,-263.2228 402,-284.7269 402,-284.7269"/>
<polygon fill="#000000" stroke="#000000" points="398.5001,-284.7269 402,-294.7269 405.5001,-284.727 398.5001,-284.7269"/>
</g>
<!-- BrowserModule -->
<g id="node6" class="node">
<title>BrowserModule</title>
<polygon fill="#8dd3c7" stroke="#000000" points="506.4734,-198 503.4734,-202 482.4734,-202 479.4734,-198 399.5266,-198 399.5266,-162 506.4734,-162 506.4734,-198"/>
<text text-anchor="middle" x="453" y="-175.8" font-family="Times,serif" font-size="14.00" fill="#000000">BrowserModule</text>
</g>
<!-- BrowserModule&#45;&gt;AppModule -->
<g id="edge4" class="edge">
<title>BrowserModule&#45;&gt;AppModule</title>
<path fill="none" stroke="#000000" d="M421.6708,-198.1061C421.6708,-198.1061 421.6708,-216.991 421.6708,-216.991"/>
<polygon fill="#000000" stroke="#000000" points="418.1708,-216.9909 421.6708,-226.991 425.1708,-216.991 418.1708,-216.9909"/>
</g>
<!-- TestModule -->
<g id="node7" class="node">
<title>TestModule</title>
<polygon fill="#8dd3c7" stroke="#000000" points="381.6529,-198 378.6529,-202 357.6529,-202 354.6529,-198 298.3471,-198 298.3471,-162 381.6529,-162 381.6529,-198"/>
<text text-anchor="middle" x="340" y="-175.8" font-family="Times,serif" font-size="14.00" fill="#000000">TestModule</text>
</g>
<!-- TestModule&#45;&gt;AppModule -->
<g id="edge6" class="edge">
<title>TestModule&#45;&gt;AppModule</title>
<path fill="none" stroke="#000000" d="M370.999,-198.1061C370.999,-198.1061 370.999,-216.991 370.999,-216.991"/>
<polygon fill="#000000" stroke="#000000" points="367.499,-216.9909 370.999,-226.991 374.499,-216.991 367.499,-216.9909"/>
</g>
<!-- TestItemComponent  -->
<g id="node11" class="node">
<title>TestItemComponent </title>
<polygon fill="#fb8072" stroke="#000000" points="376.0918,-122 241.9082,-122 241.9082,-86 376.0918,-86 376.0918,-122"/>
<text text-anchor="middle" x="309" y="-99.8" font-family="Times,serif" font-size="14.00" fill="#000000">TestItemComponent </text>
</g>
<!-- TestModule&#45;&gt;TestItemComponent  -->
<g id="edge10" class="edge">
<title>TestModule&#45;&gt;TestItemComponent </title>
<path fill="none" stroke="#000000" stroke-dasharray="5,2" d="M324.2145,-161.9891C324.2145,-161.9891 324.2145,-132.145 324.2145,-132.145"/>
<polygon fill="#000000" stroke="#000000" points="327.7146,-132.145 324.2145,-122.145 320.7146,-132.1451 327.7146,-132.145"/>
</g>
<!-- TestItemComponent -->
<g id="node9" class="node">
<title>TestItemComponent</title>
<polygon fill="#ffffb3" stroke="#000000" points="667.5912,-122 536.4088,-122 536.4088,-86 667.5912,-86 667.5912,-122"/>
<text text-anchor="middle" x="602" y="-99.8" font-family="Times,serif" font-size="14.00" fill="#000000">TestItemComponent</text>
</g>
<!-- TestItemComponent&#45;&gt;TestModule -->
<g id="edge8" class="edge">
<title>TestItemComponent&#45;&gt;TestModule</title>
<path fill="none" stroke="#000000" d="M586.087,-122.1097C586.087,-131.897 586.087,-142 586.087,-142 586.087,-142 350.255,-142 350.255,-142 350.255,-142 350.255,-151.8903 350.255,-151.8903"/>
<polygon fill="#000000" stroke="#000000" points="346.7551,-151.8903 350.255,-161.8903 353.7551,-151.8904 346.7551,-151.8903"/>
</g>
<!-- CommonModule -->
<g id="node10" class="node">
<title>CommonModule</title>
<polygon fill="#8dd3c7" stroke="#000000" points="511.6681,-122 508.6681,-126 487.6681,-126 484.6681,-122 400.3319,-122 400.3319,-86 511.6681,-86 511.6681,-122"/>
<text text-anchor="middle" x="456" y="-99.8" font-family="Times,serif" font-size="14.00" fill="#000000">CommonModule</text>
</g>
<!-- CommonModule&#45;&gt;TestModule -->
<g id="edge9" class="edge">
<title>CommonModule&#45;&gt;TestModule</title>
<path fill="none" stroke="#000000" d="M400.3094,-104C394.5016,-104 390.6697,-104 390.6697,-104 390.6697,-104 390.6697,-180 390.6697,-180 390.6697,-180 389.7871,-180 389.7871,-180"/>
<polygon fill="#000000" stroke="#000000" points="391.8438,-176.5001 381.8437,-180 391.8437,-183.5001 391.8438,-176.5001"/>
</g>
</g>
</svg>
